# xmcd
#
# Track frame offsets:
#  150
#  21452
#  37520
#  51338
#  64195
#  79638
#  91816
#  105053
#  118351
#  130049
#  146864
#  165021
#  180377
#  196468
#  210470
#  226530
#  238592
#  252263
#  271412
#
# Disc length: 3827 seconds
#
# Revision: 0
# Processed by: cddbd v1.5.1PL2 Copyright (c) Steve Scherf et al.
# Submitted via: Collectorz.com_Music_Collector 6.9
#
DISCID=ef0ef113
DTITLE=Bobby Goldsboro - It's Too Late - Honey - Summer (The First Time) - A Butterfly For Bucky  Disc Two
DYEAR=2006
DGENRE=
TTITLE0=Summer (The First Time)
TTITLE1=marlena
TTITLE2=he's part of us
TTITLE3=the l - n don't stop here anymore
TTITLE4=mississippi delta queen
TTITLE5=she
TTITLE6=killing me softly with her song
TTITLE7=spread my wings and fly
TTITLE8=if n' i was god
TTITLE9=a butterfly for bucky
TTITLE10=she taught me how to live again
TTITLE11=best to be free
TTITLE12=chippin' away
TTITLE13=another night alone
TTITLE14=love me the american way
TTITLE15=reunion
TTITLE16=kids are people too
TTITLE17=cuddle up
TTITLE18=i wrote a song (sing along)
EXTD=
EXTT0=
EXTT1=
EXTT2=
EXTT3=
EXTT4=
EXTT5=
EXTT6=
EXTT7=
EXTT8=
EXTT9=
EXTT10=
EXTT11=
EXTT12=
EXTT13=
EXTT14=
EXTT15=
EXTT16=
EXTT17=
EXTT18=
PLAYORDER=
